<svg width="304" height="304" viewBox="0 0 304 304" fill="none" xmlns="http://www.w3.org/2000/svg">
<path d="M160.804 291.728C164.111 291.522 166.959 294.038 167.164 297.345C167.369 300.652 164.854 303.5 161.547 303.705C158.389 303.901 155.206 304 152 304C148.794 304 145.611 303.901 142.453 303.705C139.146 303.5 136.631 300.652 136.836 297.345C137.041 294.038 139.889 291.522 143.196 291.728C146.107 291.908 149.042 292 152 292C154.958 292 157.893 291.908 160.804 291.728ZM92.6582 285.572C93.879 282.492 97.3666 280.983 100.447 282.204C105.864 284.351 111.446 286.169 117.169 287.634C120.379 288.456 122.315 291.724 121.493 294.935C120.671 298.145 117.403 300.082 114.192 299.26C107.975 297.668 101.91 295.692 96.0264 293.36C92.9459 292.14 91.4377 288.653 92.6582 285.572ZM203.553 282.204C206.633 280.983 210.12 282.492 211.341 285.572C212.562 288.653 211.054 292.14 207.974 293.36C202.09 295.692 196.025 297.668 189.808 299.26C186.597 300.082 183.329 298.145 182.507 294.935C181.685 291.724 183.621 288.456 186.831 287.634C192.554 286.169 198.136 284.351 203.553 282.204ZM54.3135 260.672C56.4271 258.12 60.2096 257.764 62.7617 259.878C67.2722 263.613 72.0209 267.072 76.9805 270.226C79.7762 272.004 80.6013 275.712 78.8232 278.508C77.0451 281.304 73.3372 282.129 70.541 280.351C65.1568 276.927 60.0023 273.174 55.1074 269.12C52.5555 267.007 52.2 263.224 54.3135 260.672ZM241.238 259.878C243.79 257.764 247.573 258.12 249.687 260.672C251.8 263.224 251.444 267.007 248.893 269.12C243.998 273.174 238.843 276.927 233.459 280.351C230.663 282.129 226.955 281.304 225.177 278.508C223.399 275.712 224.224 272.004 227.02 270.226C231.979 267.072 236.728 263.613 241.238 259.878ZM25.4922 225.177C28.2882 223.399 31.9961 224.224 33.7744 227.02C36.9284 231.979 40.3866 236.728 44.1221 241.238C46.2355 243.79 45.8802 247.573 43.3281 249.687C40.7761 251.8 36.9935 251.444 34.8799 248.893C30.826 243.998 27.0734 238.843 23.6494 233.459C21.8713 230.663 22.696 226.955 25.4922 225.177ZM270.226 227.02C272.004 224.224 275.712 223.399 278.508 225.177C281.304 226.955 282.129 230.663 280.351 233.459C276.927 238.843 273.174 243.998 269.12 248.893C267.007 251.444 263.224 251.8 260.672 249.687C258.12 247.573 257.764 243.79 259.878 241.238C263.613 236.728 267.072 231.979 270.226 227.02ZM9.06543 182.507C12.2755 181.685 15.5444 183.621 16.3662 186.831C17.8314 192.554 19.6495 198.136 21.7959 203.553C23.0167 206.633 21.5084 210.12 18.4277 211.341C15.3471 212.562 11.8605 211.054 10.6396 207.974C8.30791 202.09 6.33207 196.025 4.74023 189.808C3.9184 186.597 5.85525 183.329 9.06543 182.507ZM287.634 186.831C288.456 183.621 291.724 181.685 294.935 182.507C298.145 183.329 300.082 186.597 299.26 189.808C297.668 196.025 295.692 202.09 293.36 207.974C292.14 211.054 288.653 212.562 285.572 211.342C282.492 210.121 280.983 206.633 282.204 203.553C284.351 198.136 286.169 192.554 287.634 186.831ZM0 152C0 148.794 0.0990968 145.611 0.294922 142.453C0.500016 139.146 3.34792 136.631 6.65527 136.836C9.9625 137.041 12.4775 139.889 12.2725 143.196C12.092 146.107 12 149.042 12 152C12 154.958 12.092 157.893 12.2725 160.804C12.4775 164.111 9.9625 166.959 6.65527 167.164C3.34792 167.369 0.500016 164.854 0.294922 161.547C0.0990968 158.389 0 155.206 0 152ZM292 152C292 149.042 291.908 146.107 291.728 143.196C291.522 139.889 294.038 137.041 297.345 136.836C300.652 136.631 303.5 139.146 303.705 142.453C303.901 145.611 304 148.794 304 152C304 155.206 303.901 158.389 303.705 161.547C303.5 164.854 300.652 167.369 297.345 167.164C294.038 166.959 291.522 164.111 291.728 160.804C291.908 157.893 292 154.958 292 152ZM10.6396 96.0264C11.8604 92.9459 15.3472 91.4377 18.4277 92.6582C21.5084 93.879 23.0167 97.3666 21.7959 100.447C19.6495 105.864 17.8314 111.446 16.3662 117.169C15.5444 120.379 12.2755 122.315 9.06543 121.493C5.85525 120.671 3.9184 117.403 4.74023 114.192C6.33207 107.975 8.30791 101.91 10.6396 96.0264ZM285.572 92.6592C288.653 91.4384 292.14 92.9457 293.36 96.0264C295.692 101.91 297.668 107.975 299.26 114.192C300.082 117.403 298.145 120.671 294.935 121.493C291.724 122.315 288.456 120.379 287.634 117.169C286.169 111.446 284.351 105.864 282.204 100.447C280.983 97.3666 282.492 93.88 285.572 92.6592ZM34.8799 55.1074C36.9935 52.5555 40.7761 52.2 43.3281 54.3135C45.8802 56.4271 46.2356 60.2096 44.1221 62.7617C40.3866 67.2722 36.9284 72.0209 33.7744 76.9805C31.9961 79.7762 28.2882 80.6013 25.4922 78.8232C22.696 77.0451 21.8713 73.3372 23.6494 70.541C27.0734 65.1568 30.826 60.0023 34.8799 55.1074ZM260.672 54.3135C263.224 52.2 267.007 52.5555 269.12 55.1074C273.174 60.0023 276.927 65.1568 280.351 70.541C282.129 73.3372 281.304 77.0451 278.508 78.8232C275.712 80.6013 272.004 79.7762 270.226 76.9805C267.072 72.0209 263.613 67.2722 259.878 62.7617C257.764 60.2096 258.12 56.4271 260.672 54.3135ZM70.541 23.6494C73.3372 21.8713 77.0451 22.696 78.8232 25.4922C80.6013 28.2882 79.7762 31.9961 76.9805 33.7744C72.0209 36.9284 67.2722 40.3866 62.7617 44.1221C60.2096 46.2355 56.4271 45.8802 54.3135 43.3281C52.2 40.7761 52.5555 36.9935 55.1074 34.8799C60.0023 30.826 65.1568 27.0734 70.541 23.6494ZM225.177 25.4922C226.955 22.696 230.663 21.8713 233.459 23.6494C238.843 27.0734 243.998 30.826 248.893 34.8799C251.444 36.9935 251.8 40.7761 249.687 43.3281C247.573 45.8802 243.79 46.2356 241.238 44.1221C236.728 40.3866 231.979 36.9284 227.02 33.7744C224.224 31.9961 223.399 28.2882 225.177 25.4922ZM114.192 4.74023C117.403 3.9184 120.671 5.85525 121.493 9.06543C122.315 12.2755 120.379 15.5444 117.169 16.3662C111.446 17.8314 105.864 19.6495 100.447 21.7959C97.3666 23.0167 93.88 21.5084 92.6592 18.4277C91.4384 15.3471 92.9457 11.8605 96.0264 10.6396C101.91 8.30791 107.975 6.33207 114.192 4.74023ZM182.507 9.06543C183.329 5.85525 186.597 3.9184 189.808 4.74023C196.025 6.33207 202.09 8.30791 207.974 10.6396C211.054 11.8604 212.562 15.3472 211.342 18.4277C210.121 21.5084 206.633 23.0167 203.553 21.7959C198.136 19.6495 192.554 17.8314 186.831 16.3662C183.621 15.5444 181.685 12.2755 182.507 9.06543ZM152 0C155.206 0 158.389 0.0990968 161.547 0.294922C164.854 0.500016 167.369 3.34792 167.164 6.65527C166.959 9.9625 164.111 12.4775 160.804 12.2725C157.893 12.092 154.958 12 152 12C149.042 12 146.107 12.092 143.196 12.2725C139.889 12.4775 137.041 9.9625 136.836 6.65527C136.631 3.34792 139.146 0.500016 142.453 0.294922C145.611 0.0990968 148.794 0 152 0Z" fill="url(#paint0_linear_3_120)"/>
<path d="M120.502 91.0742C120.502 91.4062 120.447 92.015 120.336 92.9004C120.281 93.7305 120.142 94.6712 119.921 95.7227C119.755 96.7741 119.534 97.8809 119.257 99.043C118.98 100.15 118.62 101.201 118.178 102.197C117.79 103.138 117.32 103.913 116.767 104.521C116.213 105.13 115.577 105.435 114.857 105.435H79.7451L73.9346 134.321H106.972C107.746 134.321 108.3 134.626 108.632 135.234C108.964 135.843 109.13 136.646 109.13 137.642C109.13 138.029 109.075 138.665 108.964 139.551C108.853 140.381 108.687 141.322 108.466 142.373C108.3 143.369 108.051 144.448 107.719 145.61C107.442 146.717 107.082 147.741 106.64 148.682C106.252 149.567 105.782 150.314 105.229 150.923C104.675 151.532 104.039 151.836 103.319 151.836H70.5312L62.5625 191.929C62.4518 192.537 62.1751 193.063 61.7324 193.506C61.2897 193.949 60.598 194.308 59.6572 194.585C58.7718 194.862 57.6097 195.083 56.1709 195.249C54.7321 195.415 52.9613 195.498 50.8584 195.498C48.7002 195.498 46.9294 195.415 45.5459 195.249C44.2178 195.083 43.1663 194.862 42.3916 194.585C41.6169 194.308 41.0911 193.949 40.8145 193.506C40.5378 193.063 40.4824 192.537 40.6484 191.929L60.0723 94.4775C60.5703 92.0426 61.5664 90.2995 63.0605 89.248C64.5547 88.1413 66.2148 87.5879 68.041 87.5879H118.344C119.285 87.5879 119.866 87.8923 120.087 88.501C120.364 89.1097 120.502 89.9674 120.502 91.0742Z" fill="#0788FB"/>
<path d="M243.768 192.095C243.602 192.648 243.353 193.146 243.021 193.589C242.689 194.032 242.108 194.391 241.278 194.668C240.503 194.945 239.424 195.138 238.04 195.249C236.657 195.415 234.941 195.498 232.894 195.498C230.736 195.498 228.992 195.415 227.664 195.249C226.336 195.138 225.312 194.945 224.593 194.668C223.874 194.391 223.403 194.032 223.182 193.589C223.016 193.146 222.988 192.648 223.099 192.095L240.531 104.688H240.365L191.639 192.012C190.975 193.395 189.674 194.336 187.738 194.834C185.856 195.277 183.172 195.498 179.686 195.498C176.089 195.498 173.488 195.194 171.883 194.585C170.334 193.921 169.531 193.118 169.476 192.178L156.859 104.604H156.693L139.178 192.095C139.067 192.648 138.818 193.146 138.431 193.589C138.099 194.032 137.518 194.391 136.688 194.668C135.913 194.945 134.834 195.138 133.451 195.249C132.122 195.415 130.407 195.498 128.304 195.498C126.201 195.498 124.486 195.415 123.158 195.249C121.829 195.138 120.806 194.945 120.086 194.668C119.367 194.391 118.896 194.032 118.675 193.589C118.454 193.146 118.426 192.648 118.592 192.095L137.684 96.3867C137.961 95.0033 138.376 93.7581 138.929 92.6514C139.538 91.5446 140.257 90.6315 141.087 89.9121C141.973 89.1374 142.969 88.5563 144.076 88.1689C145.182 87.7816 146.372 87.5879 147.645 87.5879H161.258C163.693 87.5879 165.768 87.8092 167.484 88.252C169.199 88.6393 170.61 89.3311 171.717 90.3271C172.824 91.3232 173.654 92.6237 174.207 94.2285C174.816 95.8333 175.231 97.7702 175.452 100.039L185.828 163.955H186.243L223.099 100.039C224.206 97.8809 225.312 96.027 226.419 94.4775C227.526 92.8727 228.743 91.5723 230.072 90.5762C231.455 89.5247 232.977 88.7777 234.637 88.335C236.297 87.8369 238.262 87.5879 240.531 87.5879H255.97C257.353 87.5879 258.543 87.7816 259.539 88.1689C260.535 88.5563 261.31 89.1374 261.864 89.9121C262.472 90.6315 262.832 91.5446 262.943 92.6514C263.109 93.7028 263.081 94.9202 262.86 96.3037L243.768 192.095Z" fill="#EF4240"/>
<path d="M279.136 216.213C281.818 214.7 285.132 216.657 285.101 219.736L284.911 238.95C284.878 242.334 280.919 244.15 278.332 241.967L273.081 237.537C272.767 237.272 272.414 237.057 272.035 236.9L262.58 232.977C259.501 231.699 259.244 227.436 262.147 225.798L279.136 216.213Z" fill="#1883EE"/>
<path d="M24.9476 88.2347C22.2659 89.7479 18.9517 87.7905 18.9821 84.7115L19.1721 65.4978C19.2055 62.1137 23.1647 60.2977 25.7513 62.4801L31.0021 66.9103C31.3161 67.1752 31.669 67.3902 32.0485 67.5476L41.5033 71.4709C44.5824 72.7485 44.8393 77.0109 41.9359 78.6491L24.9476 88.2347Z" fill="#DE474E"/>
<defs>
<linearGradient id="paint0_linear_3_120" x1="298" y1="152" x2="6.00001" y2="152" gradientUnits="userSpaceOnUse">
<stop stop-color="#0788FB"/>
<stop offset="1" stop-color="#EF4240"/>
</linearGradient>
</defs>
</svg>
