<svg width="213" height="240" viewBox="0 0 213 240" fill="none" xmlns="http://www.w3.org/2000/svg">
    <path d="M97.0879 2.41144C102.657 -0.803804 109.519 -0.803803 115.088 2.41144L203.176 53.2698C208.745 56.4852 212.176 62.4271 212.176 68.8577V170.574C212.176 177.004 208.745 182.946 203.176 186.161L115.088 237.02C109.519 240.235 102.657 240.235 97.0879 237.02L9 186.161C3.43083 182.946 4.23147e-05 177.004 0 170.574V68.8577C0.000109641 62.4271 3.43087 56.4852 9 53.2698L97.0879 2.41144ZM37.8594 71.4407C36.248 71.4407 34.7832 71.929 33.4648 72.9056C32.1466 73.8333 31.2676 75.3715 30.8281 77.5198L13.6895 163.506C13.5431 164.043 13.5919 164.507 13.8359 164.898C14.0801 165.288 14.5441 165.606 15.2275 165.85C15.9111 166.094 16.8389 166.289 18.0107 166.436C19.2314 166.582 20.794 166.656 22.6982 166.656C24.5537 166.656 26.1162 166.582 27.3857 166.436C28.6552 166.289 29.6807 166.094 30.4619 165.85C31.2919 165.606 31.9023 165.288 32.293 164.898C32.6835 164.507 32.9277 164.043 33.0254 163.506L40.0566 128.13H68.9873C69.622 128.13 70.1836 127.861 70.6719 127.325C71.1601 126.787 71.5752 126.128 71.917 125.347C72.3076 124.517 72.625 123.613 72.8691 122.637C73.1621 121.612 73.3818 120.659 73.5283 119.781C73.7236 118.853 73.8701 118.023 73.9678 117.29C74.0654 116.509 74.1142 115.948 74.1143 115.606C74.1143 114.727 73.9677 114.019 73.6748 113.482C73.3818 112.945 72.8936 112.676 72.21 112.676H43.0596L48.1865 87.1878H79.168C79.8027 87.1878 80.3643 86.9191 80.8525 86.3821C81.3408 85.8451 81.7559 85.1613 82.0977 84.3314C82.4882 83.4526 82.8057 82.5246 83.0498 81.5482C83.2939 80.5229 83.4893 79.5461 83.6357 78.6185C83.831 77.6909 83.9531 76.8606 84.002 76.1282C84.0996 75.3473 84.1484 74.81 84.1484 74.5169C84.1484 73.5405 84.0263 72.7835 83.7822 72.2464C83.5869 71.7093 83.0742 71.4407 82.2441 71.4407H37.8594ZM95.251 71.4407C94.1279 71.4407 93.0781 71.6116 92.1016 71.9534C91.125 72.2952 90.2461 72.808 89.4648 73.4915C88.7325 74.1263 88.0976 74.932 87.5605 75.9085C87.0723 76.885 86.706 77.9838 86.4619 79.2044L69.6162 163.653C69.4698 164.141 69.4942 164.58 69.6895 164.971C69.8848 165.361 70.3 165.679 70.9346 165.923C71.5693 166.167 72.4727 166.338 73.6445 166.436C74.8164 166.582 76.3301 166.656 78.1855 166.656C80.041 166.656 81.5547 166.582 82.7266 166.436C83.9472 166.338 84.8994 166.167 85.583 165.923C86.3153 165.679 86.8281 165.362 87.1211 164.971C87.4628 164.58 87.6826 164.141 87.7803 163.653L103.234 86.4554H103.381L114.514 163.726C114.563 164.556 115.271 165.264 116.638 165.85C118.054 166.387 120.349 166.656 123.522 166.656C126.599 166.656 128.967 166.46 130.627 166.07C132.336 165.63 133.483 164.8 134.069 163.579L177.062 86.5286H177.209L161.828 163.653C161.731 164.141 161.755 164.58 161.901 164.971C162.097 165.361 162.512 165.679 163.146 165.923C163.781 166.167 164.685 166.338 165.856 166.436C167.028 166.582 168.566 166.656 170.471 166.656C172.277 166.656 173.791 166.582 175.012 166.436C176.232 166.338 177.185 166.167 177.868 165.923C178.6 165.679 179.113 165.362 179.406 164.971C179.699 164.58 179.919 164.141 180.065 163.653L196.911 79.1312C197.106 77.9106 197.131 76.8362 196.984 75.9085C196.887 74.9321 196.569 74.1262 196.032 73.4915C195.544 72.808 194.86 72.2952 193.981 71.9534C193.103 71.6116 192.053 71.4407 190.832 71.4407H177.209C175.207 71.4407 173.474 71.6605 172.009 72.0999C170.544 72.4905 169.201 73.1497 167.98 74.0775C166.809 74.9563 165.734 76.1039 164.758 77.5198C163.781 78.887 162.805 80.5229 161.828 82.4271L129.309 138.824H128.942L119.787 82.4271C119.592 80.4253 119.226 78.7161 118.688 77.3001C118.2 75.8842 117.468 74.7366 116.491 73.8577C115.515 72.9788 114.269 72.3685 112.756 72.0267C111.242 71.636 109.411 71.4407 107.263 71.4407H95.251Z" fill="#CED0D6"/>
</svg>
